HIERARCHY
ROOT Hips
{
	OFFSET	0.00	0.00	0.00
	CHANNELS 6 Xposition Yposition Zposition Zrotation Xrotation Yrotation
	JOINT LeftUpLeg
	{
		OFFSET	 0.126116	-0.065224	 0.014019
		CHANNELS 3 Zrotation Xrotation Yrotation
		JOINT LeftLeg
		{
			OFFSET	 0.000000	 0.569914	 0.000000
			CHANNELS 3 Zrotation Xrotation Yrotation
			JOINT LeftFoot
			{
				OFFSET	 0.000000	 0.544423	 0.000000
				CHANNELS 3 Zrotation Xrotation Yrotation
				JOINT LeftToeBase
				{
					OFFSET	 0.000000	 0.207117	 0.000000
					CHANNELS 3 Zrotation Xrotation Yrotation
					End Site
					{
						OFFSET	 0.000000	 0.207117	 0.000000
					}
				}
			}
		}
	}
	JOINT RightUpLeg
	{
		OFFSET	-0.124023	-0.065224	 0.008373
		CHANNELS 3 Zrotation Xrotation Yrotation
		JOINT RightLeg
		{
			OFFSET	 0.000000	 0.570047	 0.000000
			CHANNELS 3 Zrotation Xrotation Yrotation
			JOINT RightFoot
			{
				OFFSET	 0.000000	 0.544354	 0.000000
				CHANNELS 3 Zrotation Xrotation Yrotation
				JOINT RightToeBase
				{
					OFFSET	 0.000000	 0.207540	 0.000000
					CHANNELS 3 Zrotation Xrotation Yrotation
					End Site
					{
						OFFSET	 0.000000	 0.207540	 0.000000
					}
				}
			}
		}
	}
	JOINT Spine
	{
		OFFSET	 0.000184	 0.117403	 0.007763
		CHANNELS 3 Zrotation Xrotation Yrotation
		JOINT Spine1
		{
			OFFSET	 0.000000	 0.137269	 0.000000
			CHANNELS 3 Zrotation Xrotation Yrotation
			JOINT Spine2
			{
				OFFSET	 0.000000	 0.156879	 0.000000
				CHANNELS 3 Zrotation Xrotation Yrotation
				JOINT LeftShoulder
				{
					OFFSET	 0.080501	 0.160143	 0.002496
					CHANNELS 3 Zrotation Xrotation Yrotation
					JOINT LeftArm
					{
						OFFSET	 0.000000	 0.164363	 0.000000
						CHANNELS 3 Zrotation Xrotation Yrotation
						JOINT LeftForeArm
						{
							OFFSET	 0.000000	 0.364576	 0.000000
							CHANNELS 3 Zrotation Xrotation Yrotation
							JOINT LeftHand
							{
								OFFSET	 0.000000	 0.360812	 0.000000
								CHANNELS 3 Zrotation Xrotation Yrotation
								JOINT LeftHandIndex1
								{
									OFFSET	 0.000000	 0.086006	 0.000000
									CHANNELS 3 Zrotation Xrotation Yrotation
									JOINT LeftHandIndex2
									{
										OFFSET	 0.000000	 0.047237	 0.000000
										CHANNELS 3 Zrotation Xrotation Yrotation
										JOINT LeftHandIndex3
										{
											OFFSET	-0.004284	 0.038165	 0.000551
											CHANNELS 3 Zrotation Xrotation Yrotation
											End Site
											{
												OFFSET	-0.004284	 0.038165	 0.000551
											}
										}
									}
								}
							}
						}
					}
				}
				JOINT Neck
				{
					OFFSET	 0.000000	 0.176489	 0.000000
					CHANNELS 3 Zrotation Xrotation Yrotation
					JOINT Head
					{
						OFFSET	 0.000000	 0.077941	 0.001747
						CHANNELS 3 Zrotation Xrotation Yrotation
						End Site
						{
							OFFSET	 0.000000	 0.077941	 0.001747
						}
					}
				}
				JOINT RightShoulder
				{
					OFFSET	-0.080363	 0.159706	-0.000306
					CHANNELS 3 Zrotation Xrotation Yrotation
					JOINT RightArm
					{
						OFFSET	 0.000000	 0.164196	 0.000000
						CHANNELS 3 Zrotation Xrotation Yrotation
						JOINT RightForeArm
						{
							OFFSET	 0.000000	 0.365611	 0.000000
							CHANNELS 3 Zrotation Xrotation Yrotation
							JOINT RightHand
							{
								OFFSET	 0.000000	 0.360648	 0.000000
								CHANNELS 3 Zrotation Xrotation Yrotation
								JOINT RightHandIndex1
								{
									OFFSET	 0.000000	 0.069977	 0.000000
									CHANNELS 3 Zrotation Xrotation Yrotation
									JOINT RightHandIndex2
									{
										OFFSET	 0.000000	 0.052305	 0.000000
										CHANNELS 3 Zrotation Xrotation Yrotation
										JOINT RightHandIndex3
										{
											OFFSET	 0.009002	 0.042196	 0.000782
											CHANNELS 3 Zrotation Xrotation Yrotation
											End Site
											{
												OFFSET	 0.009002	 0.042196	 0.000782
											}
										}
									}
								}
							}
						}
					}
				}
			}
		}
	}
}
MOTION
Frames:    5
Frame Time: 0.03333334
-0.000582	 1.298989	-0.013389	 0.316523	 1.983272	 177.651100	 179.937400	 4.671731	-5.349705	 3.453276	-16.967080	 2.818145	-4.242150	 65.996340	 6.367516	 1.331492	 28.938720	-2.729976	-179.161400	 5.450740	 6.298254	-5.243996	-16.779450	-7.528892	-0.939969	 65.629590	 0.947768	-1.309656	 28.633560	 2.388800	-1.148412	 4.038840	 8.257706	-0.843536	-0.202950	 3.700269	-0.157672	 2.130606	-13.126110	-113.435000	 5.417851	 92.952190	-3.438588	 44.559090	 44.440780	 36.213930	-1.751141	 0.488803	-16.361800	 0.190475	 13.821770	-6.580301	 5.266122	 0.000000	 0.000000	 0.000000	 0.000000	 0.000000	 0.000000	 0.000000	 4.989892	-0.505778	 0.291521	 1.448677	 2.009451	-0.333933	 114.287200	-4.883691	-88.060530	-75.015740	-18.707370	 57.484050	-62.674720	-2.001885	-1.160452	-6.669145	-1.873296	-46.378730	-0.359580	 10.577320	 0.744503	 11.977700	 9.312318	-2.094981	-8.359083	 3.147774	 0.104404
 0.001062	 1.298968	-0.012075	 0.303565	 2.043428	 177.878900	 179.990400	 4.678144	-5.124372	 3.448744	-16.946150	 2.933305	-4.087128	 65.926570	 6.105153	 1.331492	 28.938720	-2.729976	-179.115400	 5.429078	 6.503904	-5.236094	-16.755610	-7.533989	-1.017162	 65.627490	 0.982707	-1.307542	 28.605730	 2.440010	-1.132077	 4.150777	 8.274671	-0.707711	-0.295832	 3.683426	-0.268090	 2.455477	-13.221320	-113.435700	 5.435701	 92.968980	-3.809510	 44.791870	 44.280750	 36.061080	-1.744684	 0.484080	-15.222480	-0.672214	 14.015020	-6.580301	 5.266122	 0.000000	 0.000000	 0.000000	 0.000000	 0.000000	 0.000000	 0.000000	 5.049155	-0.474401	 0.200104	 1.981316	 1.878947	-0.565627	 114.284200	-4.862431	-88.071050	-74.800170	-16.422390	 53.523420	-70.828190	-2.128239	-1.454784	 0.332086	 2.023455	-43.795310	-0.389790	 11.443210	 0.750278	 11.990210	 10.159640	-2.277466	-8.368135	 3.615190	 0.074490
 0.002960	 1.298918	-0.010787	 0.285900	 2.102746	 178.109400	-179.957600	 4.691136	-4.896980	 3.446467	-16.935540	 3.057311	-3.923058	 65.861960	 5.826720	 1.331492	 28.938720	-2.729976	-179.073100	 5.419898	 6.713160	-5.231369	-16.741390	-7.531022	-1.076296	 65.621680	 0.995654	-1.305490	 28.579070	 2.489135	-1.118848	 4.259721	 8.363611	-0.644225	-0.366236	 3.743301	-0.345766	 2.757696	-13.305720	-113.436300	 5.452500	 92.985120	-3.977273	 45.175280	 43.996560	 35.985610	-1.741518	 0.481785	-14.284240	-1.753456	 14.346630	-6.580301	 5.266122	 0.000000	 0.000000	 0.000000	 0.000000	 0.000000	 0.000000	 0.000000	 5.105201	-0.443924	 0.110169	 2.501606	 1.750022	-0.790277	 114.281100	-4.840537	-88.082190	-75.261440	-11.601360	 48.376040	-81.446480	-2.228047	-1.859481	 7.811045	 3.510706	-42.816320	-0.419415	 12.287230	 0.756373	 12.005080	 10.985530	-2.456009	-8.376727	 4.070719	 0.045393
 0.005830	 1.298811	-0.009015	 0.254570	 2.184240	 178.423900	-179.889100	 4.719941	-4.586689	 3.445592	-16.931520	 3.226510	-3.710225	 65.772470	 5.452528	 1.331492	 28.938720	-2.729976	-179.018300	 5.425463	 6.998168	-5.230580	-16.739030	-7.528044	-1.156524	 65.612560	 1.011892	-1.302662	 28.542840	 2.555845	-1.104042	 4.408253	 8.557950	-0.630216	-0.437383	 3.905595	-0.419450	 3.152066	-13.401650	-113.437300	 5.475327	 93.007010	-3.959066	 45.859940	 43.437450	 35.964590	-1.740550	 0.481144	-13.210540	-3.557664	 14.940920	-6.580301	 5.266122	 0.000000	 0.000000	 0.000000	 0.000000	 0.000000	 0.000000	 0.000000	 5.181405	-0.402667	-0.012038	 3.207008	 1.573456	-1.088980	 114.277000	-4.810809	-88.097320	-77.485500	-3.104887	 38.566460	-94.419960	-2.246378	-2.368119	 16.601030	 1.523858	-43.583970	-0.459971	 13.433880	 0.765407	 12.029570	 12.107460	-2.699770	-8.388033	 4.689511	 0.005949
 0.007947	 1.298713	-0.007743	 0.228630	 2.243619	 178.649700	-179.844300	 4.749933	-4.363972	 3.446484	-16.935620	 3.348789	-3.557614	 65.705220	 5.184204	 1.331492	 28.938720	-2.729976	-178.981300	 5.438791	 7.202517	-5.234270	-16.750150	-7.526735	-1.211510	 65.609250	 1.022266	-1.300599	 28.516790	 2.603796	-1.094900	 4.514786	 8.719270	-0.644190	-0.475850	 4.049239	-0.462574	 3.426417	-13.456600	-113.437900	 5.491743	 93.022770	-3.796380	 46.408790	 42.922490	 35.986900	-1.741556	 0.481833	-12.508810	-5.036811	 15.404080	-6.580301	 5.266122	 0.000000	 0.000000	 0.000000	 0.000000	 0.000000	 0.000000	 0.000000	 5.236249	-0.373105	-0.099938	 3.713245	 1.445528	-1.298973	 114.274000	-4.789423	-88.108210	-79.799850	 3.582254	 29.753120	-100.217800	-2.217382	-2.594116	 20.194940	-2.548111	-44.919570	-0.489371	 14.258340	 0.772447	 12.050270	 12.914080	-2.875996	-8.395905	 5.134429	-0.022358
